<svg width="24" height="25" viewBox="0 0 24 25" fill="none" xmlns="http://www.w3.org/2000/svg">
<path d="M12.954 11.8743L15.911 8.91731L6.36 3.54931C5.727 3.20731 5.134 3.15931 4.614 3.53331L12.954 11.8743ZM16.415 15.3363L19.489 13.6073C20.089 13.2713 20.418 12.7953 20.418 12.2673C20.418 11.7403 20.089 11.2633 19.49 10.9273L16.707 9.36431L13.574 12.4963L16.415 15.3363ZM4.1 4.26031C4.036 4.45731 4 4.67731 4 4.91831V19.6233C4 20.0043 4.084 20.3323 4.236 20.5933L12.333 12.4953L4.1 4.26031ZM12.954 13.1153L4.902 21.1683C5.056 21.2273 5.222 21.2583 5.397 21.2583C5.709 21.2583 6.034 21.1663 6.365 20.9823L15.62 15.7853L12.954 13.1153Z" fill="#A17E6D"/>
</svg>
