<svg width="37" height="36" viewBox="0 0 37 36" fill="none" xmlns="http://www.w3.org/2000/svg">
<circle opacity="0.1" cx="18.3743" cy="18" r="18" fill="#C4C4C4"/>
<path d="M11.1256 13.9399H13.6256" stroke="#14142A" stroke-opacity="0.7" stroke-width="1.25" stroke-linecap="round" stroke-linejoin="round"/>
<path d="M11.1256 22.273H16.1256" stroke="#14142A" stroke-opacity="0.7" stroke-width="1.25" stroke-linecap="round" stroke-linejoin="round"/>
<path d="M23.6256 22.273H26.1256" stroke="#14142A" stroke-opacity="0.7" stroke-width="1.25" stroke-linecap="round" stroke-linejoin="round"/>
<path d="M21.1256 13.9399H26.1256" stroke="#14142A" stroke-opacity="0.7" stroke-width="1.25" stroke-linecap="round" stroke-linejoin="round"/>
<path d="M13.6256 13.9399C13.6256 13.1634 13.6256 12.7751 13.7525 12.4688C13.9216 12.0604 14.2461 11.736 14.6545 11.5668C14.9608 11.4399 15.349 11.4399 16.1256 11.4399C16.9022 11.4399 17.2904 11.4399 17.5968 11.5668C18.0051 11.736 18.3296 12.0604 18.4988 12.4688C18.6256 12.7751 18.6256 13.1634 18.6256 13.9399C18.6256 14.7165 18.6256 15.1048 18.4988 15.4111C18.3296 15.8195 18.0051 16.1439 17.5968 16.3131C17.2904 16.4399 16.9022 16.4399 16.1256 16.4399C15.349 16.4399 14.9608 16.4399 14.6545 16.3131C14.2461 16.1439 13.9216 15.8195 13.7525 15.4111C13.6256 15.1048 13.6256 14.7165 13.6256 13.9399Z" stroke="#14142A" stroke-opacity="0.7" stroke-width="1.25"/>
<path d="M18.6256 22.273C18.6256 21.4964 18.6256 21.1082 18.7524 20.8018C18.9216 20.3935 19.2461 20.069 19.6544 19.8998C19.9608 19.773 20.349 19.773 21.1256 19.773C21.9022 19.773 22.2904 19.773 22.5968 19.8998C23.0051 20.069 23.3296 20.3935 23.4988 20.8018C23.6256 21.1082 23.6256 21.4964 23.6256 22.273C23.6256 23.0496 23.6256 23.4378 23.4988 23.7442C23.3296 24.1525 23.0051 24.477 22.5968 24.6462C22.2904 24.773 21.9022 24.773 21.1256 24.773C20.349 24.773 19.9608 24.773 19.6544 24.6462C19.2461 24.477 18.9216 24.1525 18.7524 23.7442C18.6256 23.4378 18.6256 23.0496 18.6256 22.273Z" stroke="#14142A" stroke-opacity="0.7" stroke-width="1.25"/>
</svg>
