<svg width="17" height="16" viewBox="0 0 17 16" fill="none" xmlns="http://www.w3.org/2000/svg">
<path d="M9.16663 2.66668H4.49996C4.14634 2.66668 3.8072 2.80715 3.55715 3.0572C3.3071 3.30725 3.16663 3.64639 3.16663 4.00001V12C3.16663 12.3536 3.3071 12.6928 3.55715 12.9428C3.8072 13.1929 4.14634 13.3333 4.49996 13.3333H9.16663M11.8333 2.66668H12.5C12.8536 2.66668 13.1927 2.80715 13.4428 3.0572C13.6928 3.30725 13.8333 3.64639 13.8333 4.00001V4.66668M13.8333 11.3333V12C13.8333 12.3536 13.6928 12.6928 13.4428 12.9428C13.1927 13.1929 12.8536 13.3333 12.5 13.3333H11.8333M13.8333 7.33334V8.66668M8.49996 1.33334V14.6667" stroke="#555555" stroke-opacity="0.333333" stroke-width="1.33333" stroke-linecap="round" stroke-linejoin="round"/>
</svg>
