<svg width="8" height="9" viewBox="0 0 8 9" fill="none" xmlns="http://www.w3.org/2000/svg">
<path d="M7.94953 3.62079L7.76008 4.08943C7.70025 4.24897 7.70025 4.41848 7.76008 4.57802L7.94953 5.04667C8.05922 5.32586 7.96948 5.64494 7.7202 5.82442L7.30141 6.11358C7.16181 6.2133 7.07207 6.36286 7.03218 6.5224L6.94244 7.02096C6.88262 7.3201 6.63334 7.53946 6.3342 7.54944L5.82567 7.56938C5.65616 7.57935 5.49662 7.64915 5.37697 7.7688L5.02797 8.13774C4.81858 8.3571 4.48953 8.40696 4.23028 8.25739L3.79155 7.99814C3.64198 7.9084 3.47247 7.88846 3.30296 7.92834L2.8044 8.048C2.51523 8.11779 2.20613 7.9782 2.06653 7.70897L1.83719 7.2503C1.75742 7.10073 1.6278 6.98108 1.46826 6.93122L0.989641 6.77168C0.700476 6.67197 0.520995 6.39278 0.550908 6.09364L0.600764 5.58511C0.620707 5.4156 0.570851 5.24609 0.461168 5.11646L0.142089 4.71762C-0.0473632 4.47831 -0.0473632 4.14926 0.142089 3.90995L0.461168 3.5111C0.570851 3.38148 0.620707 3.21197 0.600764 3.04246L0.550908 2.53393C0.520995 2.23479 0.700476 1.9556 0.989641 1.85588L1.46826 1.69634C1.6278 1.64649 1.75742 1.52683 1.83719 1.37727L2.06653 0.918592C2.20613 0.64937 2.50526 0.509773 2.8044 0.579571L3.30296 0.699226C3.4625 0.73911 3.64198 0.719168 3.79155 0.629427L4.23028 0.370176C4.48953 0.220608 4.81858 0.260493 5.02797 0.48983L5.37697 0.858765C5.49662 0.978419 5.65616 1.05819 5.82567 1.05819L6.3342 1.07813C6.63334 1.0881 6.89259 1.30747 6.94244 1.6066L7.03218 2.10516C7.0621 2.27467 7.16181 2.42424 7.30141 2.51398L7.7202 2.80315C7.96948 3.02251 8.06919 3.34159 7.94953 3.62079Z" fill="#00D566"/>
<g opacity="0.15">
<path d="M2.35569 7.67907L2.12636 7.2204C2.04659 7.07083 1.91696 6.95118 1.75742 6.90132L1.27881 6.74178C0.989641 6.64207 0.810159 6.36288 0.840073 6.06374L0.889929 5.55521C0.909871 5.3857 0.860015 5.21619 0.750332 5.08656L0.431254 4.68772C0.241801 4.44841 0.241801 4.11936 0.431254 3.88005L0.750332 3.4812C0.860015 3.35158 0.909871 3.18207 0.889929 3.01255L0.840073 2.50402C0.810159 2.20489 0.989641 1.92569 1.27881 1.82598L1.75742 1.66644C1.91696 1.61659 2.04659 1.49693 2.12636 1.34737L2.35569 0.888691C2.43546 0.729152 2.57506 0.619469 2.72463 0.569613C2.45541 0.529728 2.18618 0.669325 2.06653 0.918604L1.83719 1.37728C1.75742 1.52685 1.6278 1.6465 1.46826 1.69636L0.989641 1.8559C0.700476 1.95561 0.520995 2.2348 0.550908 2.53394L0.600764 3.04247C0.620707 3.21198 0.570851 3.38149 0.461168 3.51111L0.142089 3.90996C-0.0473632 4.14927 -0.0473632 4.47832 0.142089 4.71763L0.461168 5.11648C0.570851 5.2461 0.620707 5.41561 0.600764 5.58512L0.550908 6.09365C0.520995 6.39279 0.700476 6.67198 0.989641 6.7717L1.46826 6.93123C1.6278 6.98109 1.75742 7.10074 1.83719 7.25031L2.06653 7.70899C2.20613 7.97821 2.50526 8.11781 2.8044 8.04801L2.86422 8.03804C2.64486 7.99815 2.45541 7.8785 2.35569 7.67907Z" fill="#A17E6D"/>
<path d="M4.07044 0.599992L4.50917 0.340741C4.54906 0.320799 4.58894 0.300857 4.62883 0.290886C4.48923 0.270943 4.33966 0.300857 4.22001 0.370655L3.78128 0.629906C3.74139 0.649848 3.70151 0.669791 3.66162 0.679762C3.80122 0.699704 3.94081 0.679762 4.07044 0.599992Z" fill="#A17E6D"/>
<path d="M6.10493 7.52952C6.05507 7.52952 6.00522 7.5395 5.96533 7.54947L6.32429 7.52952C6.37415 7.52952 6.41404 7.51955 6.46389 7.50958L6.10493 7.52952Z" fill="#A17E6D"/>
<path d="M4.50924 8.21772L4.07051 7.95847C3.92094 7.86873 3.75143 7.84878 3.58192 7.88867L3.52209 7.89864C3.61184 7.90861 3.6916 7.93852 3.77137 7.97841L4.21011 8.23766C4.37962 8.33737 4.56907 8.34734 4.74855 8.28751C4.66878 8.28751 4.58901 8.26757 4.50924 8.21772Z" fill="#A17E6D"/>
</g>
<path d="M2.41553 3.70091L3.66193 5.12679L6.21455 3.07272" fill="#00D566"/>
<path d="M3.36259 5.86427C3.223 5.86427 3.0834 5.80444 2.98369 5.69476L1.73729 4.26888C1.55781 4.05948 1.57775 3.75038 1.77717 3.56092C1.98657 3.38144 2.29568 3.40138 2.48513 3.60081L3.42242 4.66773L5.60611 2.9128C5.81551 2.74329 6.13458 2.7732 6.3041 2.99257C6.47361 3.21193 6.44369 3.52104 6.22433 3.69055L3.6717 5.75459C3.58196 5.82438 3.47228 5.86427 3.36259 5.86427Z" fill="white"/>
</svg>
