<svg width="10" height="11" viewBox="0 0 10 11" fill="none" xmlns="http://www.w3.org/2000/svg">
<circle cx="5" cy="5.19061" r="4.75" stroke="#A17E6D" stroke-width="0.5"/>
<g clip-path="url(#clip0_123_3854)">
<path fill-rule="evenodd" clip-rule="evenodd" d="M6.50385 3.94064L7.24627 5.95958H7.50385V5.97473H6.68946V5.95958H6.92809L6.68567 5.2967H6.18567L6.18946 5.30428C6.2084 5.3611 6.21976 5.42549 6.21976 5.4861V5.7361C6.21976 5.86489 6.27658 5.99367 6.38264 5.99367C6.44703 5.99367 6.49627 5.97095 6.55688 5.91792L6.56446 5.92549C6.50006 5.99367 6.42052 6.02398 6.2993 6.02398C6.2084 6.02398 6.13264 6.00125 6.07203 5.95958L6.06067 5.95201C5.98112 5.8914 5.92809 5.78913 5.90536 5.65276L5.90158 5.63004L5.89779 5.59595V5.58837L5.76143 5.95958H5.95461V5.97473H5.5493V5.95958H5.74627L5.89779 5.55049C5.89779 5.52776 5.894 5.50125 5.894 5.47852V5.30428C5.894 5.08458 5.73112 4.95958 5.44703 4.95958H5.16673V5.96337H5.40915V5.97852H4.46597V5.96337H4.70461L4.46218 5.30049H3.78415L3.54173 5.95579H3.55309C3.87127 5.90276 4.01521 5.66034 4.019 5.40655H4.03415V5.98231H2.50006L3.64021 4.02398H3.18188C2.80309 4.02398 2.62885 4.31564 2.62506 4.60731H2.6137V4.00883H3.99627L3.9887 4.02398L2.85612 5.96337H3.45082C3.46597 5.96337 3.48112 5.96337 3.49627 5.96337C3.50764 5.96337 3.51521 5.96337 3.52658 5.95958H3.53036L4.269 3.94064H4.28415L4.86749 5.53155V4.02398H4.62885V4.00883H5.45461C5.85233 4.00883 6.12885 4.21337 6.12885 4.50504C6.12885 4.71716 5.93946 4.89519 5.65915 4.94443L5.60612 4.95201L5.65915 4.95579C5.82961 4.97473 5.96597 5.02776 6.06067 5.1111L6.4887 3.94064H6.50385ZM6.17809 5.28155L6.6743 5.28534L6.34097 4.38004L6.06824 5.12625L6.08339 5.1414C6.12506 5.17928 6.15536 5.22852 6.17809 5.28155ZM5.16673 4.94443V4.02398H5.37885C5.66294 4.02398 5.81446 4.19064 5.81446 4.50883C5.81446 4.84595 5.72733 4.94822 5.44703 4.94822C5.44703 4.94443 5.16673 4.94443 5.16673 4.94443ZM4.12506 4.37625L3.79173 5.28155H4.45839L4.12506 4.37625Z" fill="#A17E6D"/>
</g>
<defs>
<clipPath id="clip0_123_3854">
<rect width="5" height="2.08333" fill="white" transform="translate(2.50006 3.94064)"/>
</clipPath>
</defs>
</svg>
