<svg width="32" height="33" viewBox="0 0 32 33" fill="none" xmlns="http://www.w3.org/2000/svg">
<circle cx="16" cy="16.2583" r="15.3333" stroke="#A17E6D" stroke-width="1.33333"/>
<path d="M16.8569 7.92499C17.7944 7.92749 18.2702 7.93249 18.681 7.94415L18.8427 7.94999C19.0294 7.95665 19.2135 7.96499 19.436 7.97499C20.3227 8.01665 20.9277 8.15665 21.4585 8.36249C22.0085 8.57415 22.4719 8.86082 22.9352 9.32332C23.3589 9.7399 23.6868 10.2438 23.896 10.8C24.1019 11.3308 24.2419 11.9358 24.2835 12.8233C24.2935 13.045 24.3019 13.2292 24.3085 13.4167L24.3135 13.5783C24.326 13.9883 24.331 14.4642 24.3327 15.4017L24.3335 16.0233V17.115C24.3356 17.7228 24.3292 18.3307 24.3144 18.9383L24.3094 19.1C24.3027 19.2875 24.2944 19.4717 24.2844 19.6933C24.2427 20.5808 24.101 21.185 23.896 21.7167C23.6874 22.2731 23.3595 22.7772 22.9352 23.1933C22.5185 23.6169 22.0146 23.9448 21.4585 24.1542C20.9277 24.36 20.3227 24.5 19.436 24.5416C19.2383 24.551 19.0405 24.5593 18.8427 24.5666L18.681 24.5716C18.2702 24.5833 17.7944 24.5891 16.8569 24.5908L16.2352 24.5917H15.1444C14.5362 24.5937 13.9281 24.5874 13.3202 24.5725L13.1585 24.5675C12.9607 24.56 12.7629 24.5514 12.5652 24.5416C11.6785 24.5 11.0735 24.36 10.5419 24.1542C9.98575 23.9453 9.48204 23.6174 9.06603 23.1933C8.6419 22.7769 8.31372 22.273 8.10436 21.7167C7.89853 21.1858 7.75853 20.5808 7.71686 19.6933C7.70758 19.4956 7.69924 19.2978 7.69186 19.1L7.6877 18.9383C7.67234 18.3307 7.66539 17.7228 7.66686 17.115V15.4017C7.66454 14.7938 7.67065 14.186 7.6852 13.5783L7.69103 13.4167C7.6977 13.2292 7.70603 13.045 7.71603 12.8233C7.7577 11.9358 7.8977 11.3317 8.10353 10.8C8.31279 10.2432 8.64163 9.73917 9.06686 9.32332C9.48277 8.89955 9.98615 8.57164 10.5419 8.36249C11.0735 8.15665 11.6777 8.01665 12.5652 7.97499C12.7869 7.96499 12.9719 7.95665 13.1585 7.94999L13.3202 7.94499C13.9279 7.93018 14.5357 7.92379 15.1435 7.92582L16.8569 7.92499ZM16.0002 12.0917C14.8951 12.0917 13.8353 12.5306 13.0539 13.312C12.2725 14.0934 11.8335 15.1533 11.8335 16.2583C11.8335 17.3634 12.2725 18.4232 13.0539 19.2046C13.8353 19.986 14.8951 20.425 16.0002 20.425C17.1053 20.425 18.1651 19.986 18.9465 19.2046C19.7279 18.4232 20.1669 17.3634 20.1669 16.2583C20.1669 15.1533 19.7279 14.0934 18.9465 13.312C18.1651 12.5306 17.1053 12.0917 16.0002 12.0917ZM16.0002 13.7583C16.3285 13.7583 16.6536 13.8229 16.9569 13.9485C17.2603 14.074 17.5359 14.2582 17.7681 14.4903C18.0003 14.7224 18.1845 14.9979 18.3102 15.3012C18.4358 15.6045 18.5006 15.9296 18.5006 16.2579C18.5007 16.5862 18.4361 16.9113 18.3105 17.2146C18.1849 17.518 18.0008 17.7936 17.7687 18.0258C17.5366 18.258 17.261 18.4422 16.9577 18.5679C16.6544 18.6935 16.3293 18.7583 16.001 18.7583C15.338 18.7583 14.7021 18.4949 14.2333 18.0261C13.7644 17.5572 13.501 16.9214 13.501 16.2583C13.501 15.5953 13.7644 14.9594 14.2333 14.4906C14.7021 14.0217 15.338 13.7583 16.001 13.7583M20.376 10.8417C20.0998 10.8417 19.8348 10.9514 19.6395 11.1468C19.4441 11.3421 19.3344 11.6071 19.3344 11.8833C19.3344 12.1596 19.4441 12.4245 19.6395 12.6199C19.8348 12.8152 20.0998 12.925 20.376 12.925C20.6523 12.925 20.9173 12.8152 21.1126 12.6199C21.308 12.4245 21.4177 12.1596 21.4177 11.8833C21.4177 11.6071 21.308 11.3421 21.1126 11.1468C20.9173 10.9514 20.6523 10.8417 20.376 10.8417Z" fill="#A17E6D"/>
</svg>
