<svg width="67" height="37" viewBox="0 0 67 37" fill="none" xmlns="http://www.w3.org/2000/svg">
<rect x="0.5" y="0.994446" width="65.8828" height="35.0111" rx="5.5" stroke="#F0F0F0"/>
<path d="M38.6991 9.06387H28.1865V27.9305H38.6991V9.06387Z" fill="#FF5F00"/>
<path d="M28.8539 18.4972C28.8539 14.8306 30.556 11.3306 33.4261 9.06389C28.2198 4.96389 20.6775 5.86389 16.5725 11.0972C12.4676 16.2972 13.3687 23.8306 18.6083 27.9306C22.9802 31.3639 29.0875 31.3639 33.4595 27.9306C30.556 25.6639 28.8539 22.1639 28.8539 18.4972Z" fill="#EB001B"/>
<path d="M52.8828 18.4972C52.8828 25.1306 47.5097 30.4972 40.8684 30.4972C38.1651 30.4972 35.562 29.5972 33.4595 27.9306C38.6657 23.8306 39.5668 16.2972 35.4619 11.0639C34.8612 10.3306 34.1937 9.63055 33.4595 9.06389C38.6657 4.96389 46.2415 5.86389 50.313 11.0972C51.9817 13.1972 52.8828 15.7972 52.8828 18.4972Z" fill="#F79E1B"/>
<path d="M51.748 25.9306V25.5306H51.9149V25.4639H51.5144V25.5306H51.6813V25.9306H51.748ZM52.5156 25.9306V25.4639H52.3821L52.2486 25.7972L52.1151 25.4639H51.9816V25.9306H52.0818V25.5639L52.2152 25.8639H52.3154L52.4489 25.5639V25.9306H52.5156Z" fill="#F79E1B"/>
</svg>
