<svg width="24" height="25" viewBox="0 0 24 25" fill="none" xmlns="http://www.w3.org/2000/svg">
<g clip-path="url(#clip0_50_2683)">
<path fill-rule="evenodd" clip-rule="evenodd" d="M15.707 12.0514C15.8944 12.2389 15.9998 12.4932 15.9998 12.7584C15.9998 13.0235 15.8944 13.2778 15.707 13.4654L10.05 19.1224C9.95772 19.2179 9.84738 19.294 9.72537 19.3465C9.60337 19.3989 9.47215 19.4265 9.33937 19.4276C9.20659 19.4288 9.07491 19.4035 8.95202 19.3532C8.82912 19.3029 8.71747 19.2286 8.62357 19.1347C8.52968 19.0409 8.45543 18.9292 8.40515 18.8063C8.35487 18.6834 8.32957 18.5517 8.33072 18.419C8.33187 18.2862 8.35946 18.155 8.41187 18.033C8.46428 17.9109 8.54046 17.8006 8.63597 17.7084L13.586 12.7584L8.63597 7.80835C8.45381 7.61975 8.35302 7.36715 8.3553 7.10495C8.35757 6.84276 8.46274 6.59194 8.64815 6.40654C8.83356 6.22113 9.08437 6.11596 9.34657 6.11368C9.60876 6.1114 9.86137 6.2122 10.05 6.39435L15.707 12.0514Z" fill="#8F949A"/>
</g>
<defs>
<clipPath id="clip0_50_2683">
<rect width="24" height="24" fill="white" transform="matrix(-1 0 0 -1 24 24.7584)"/>
</clipPath>
</defs>
</svg>
