<svg width="24" height="25" viewBox="0 0 24 25" fill="none" xmlns="http://www.w3.org/2000/svg">
<g clip-path="url(#clip0_50_2665)">
<path fill-rule="evenodd" clip-rule="evenodd" d="M8.29303 13.4654C8.10556 13.2778 8.00024 13.0235 8.00024 12.7584C8.00024 12.4932 8.10556 12.2389 8.29303 12.0514L13.95 6.39437C14.0423 6.29886 14.1526 6.22268 14.2746 6.17027C14.3966 6.11786 14.5279 6.09027 14.6606 6.08912C14.7934 6.08796 14.9251 6.11327 15.048 6.16355C15.1709 6.21383 15.2825 6.28808 15.3764 6.38197C15.4703 6.47587 15.5446 6.58752 15.5949 6.71041C15.6451 6.83331 15.6704 6.96499 15.6693 7.09777C15.6681 7.23055 15.6405 7.36177 15.5881 7.48377C15.5357 7.60578 15.4595 7.71612 15.364 7.80837L10.414 12.7584L15.364 17.7084C15.5462 17.897 15.647 18.1496 15.6447 18.4118C15.6424 18.674 15.5373 18.9248 15.3518 19.1102C15.1664 19.2956 14.9156 19.4008 14.6534 19.403C14.3912 19.4053 14.1386 19.3045 13.95 19.1224L8.29303 13.4654Z" fill="#8F949A"/>
</g>
<defs>
<clipPath id="clip0_50_2665">
<rect width="24" height="24" fill="white" transform="translate(0 0.758362)"/>
</clipPath>
</defs>
</svg>
