<svg width="32" height="33" viewBox="0 0 32 33" fill="none" xmlns="http://www.w3.org/2000/svg">
<circle cx="16" cy="16.2583" r="15.3333" stroke="#A17E6D" stroke-width="1.33333"/>
<path d="M17.1434 8.00328C15.1502 7.73016 13.1254 8.18712 11.4427 9.28987C9.75997 10.3926 8.53285 12.0667 7.98773 14.0033C7.44261 15.9399 7.61628 18.0083 8.47669 19.8269C9.3371 21.6455 10.8262 23.0916 12.6692 23.8983C12.6191 23.2584 12.6646 22.6147 12.8042 21.9883C12.9584 21.2891 13.8842 17.4358 13.8842 17.4358C13.6998 17.0225 13.6077 16.5741 13.6142 16.1216C13.6142 14.8841 14.3284 13.9608 15.2167 13.9608C15.3763 13.9585 15.5345 13.9905 15.6806 14.0548C15.8267 14.1191 15.9572 14.2141 16.0633 14.3333C16.1694 14.4525 16.2486 14.5932 16.2955 14.7458C16.3424 14.8983 16.3559 15.0592 16.3351 15.2174C16.3351 15.9674 15.8534 17.1024 15.6017 18.1674C15.552 18.3628 15.5488 18.567 15.5925 18.7638C15.6362 18.9606 15.7255 19.1443 15.8532 19.3002C15.9809 19.4562 16.1434 19.5799 16.3277 19.6615C16.512 19.7431 16.7129 19.7802 16.9142 19.7699C18.4951 19.7699 19.5559 17.7441 19.5559 15.3524C19.5559 13.5183 18.3417 12.1466 16.1034 12.1466C15.5679 12.1258 15.0338 12.214 14.5335 12.4059C14.0332 12.5978 13.5771 12.8894 13.1929 13.2629C12.8087 13.6364 12.5044 14.0841 12.2985 14.5788C12.0926 15.0736 11.9893 15.605 11.9951 16.1408C11.9712 16.7352 12.163 17.3182 12.5351 17.7824C12.6046 17.8343 12.6553 17.9074 12.6797 17.9907C12.7041 18.074 12.7007 18.1629 12.6701 18.2441C12.6317 18.3974 12.5351 18.7633 12.4967 18.8983C12.4886 18.9437 12.47 18.9866 12.4423 19.0235C12.4147 19.0604 12.3787 19.0904 12.3374 19.1109C12.296 19.1314 12.2505 19.1419 12.2043 19.1416C12.1582 19.1413 12.1128 19.1302 12.0717 19.1091C10.9184 18.6474 10.3751 17.3783 10.3751 15.9291C10.3751 13.5566 12.3617 10.7166 16.3367 10.7166C19.5001 10.7166 21.6026 13.0308 21.6026 15.5058C21.6026 18.7633 19.7892 21.2124 17.1084 21.2124C16.7077 21.2253 16.3103 21.1368 15.9528 20.9553C15.5954 20.7738 15.2895 20.5052 15.0634 20.1741C15.0634 20.1741 14.5809 22.1041 14.4867 22.4691C14.2928 23.0997 14.0067 23.6981 13.6376 24.2449C14.4067 24.4783 15.2059 24.5949 16.0092 24.5916C17.1038 24.5925 18.1878 24.3775 19.1992 23.9588C20.2105 23.5402 21.1294 22.9262 21.9031 22.152C22.6769 21.3778 23.2903 20.4586 23.7084 19.4469C24.1264 18.4353 24.3408 17.3512 24.3392 16.2566C24.3384 14.244 23.6093 12.2996 22.2867 10.7826C20.964 9.26555 19.1371 8.27835 17.1434 8.00328Z" fill="#A17E6D"/>
</svg>
