<svg width="24" height="25" viewBox="0 0 24 25" fill="none" xmlns="http://www.w3.org/2000/svg">
<path fill-rule="evenodd" clip-rule="evenodd" d="M15.1766 2.48343C14.7621 2.24331 14.2693 2.17759 13.8064 2.30071C13.3435 2.42382 12.9484 2.72571 12.708 3.14L12.2486 3.92857L11.7909 3.14C11.5503 2.72512 11.1549 2.42279 10.6914 2.29949C10.228 2.1762 9.73458 2.24206 9.31971 2.48257C8.90484 2.72308 8.6025 3.11855 8.47921 3.58198C8.35591 4.04541 8.42177 4.53884 8.66228 4.95371L10.1589 7.53371L5.39657 15.7451H2.24228C1.76307 15.7451 1.30349 15.9355 0.964641 16.2744C0.62579 16.6132 0.435425 17.0728 0.435425 17.552C0.435425 18.0312 0.62579 18.4908 0.964641 18.8296C1.30349 19.1685 1.76307 19.3589 2.24228 19.3589H14.7909L12.6994 15.7451H9.576L12.2486 11.1354L15.8331 4.95543C15.9523 4.75013 16.0298 4.52337 16.0613 4.2881C16.0928 4.05283 16.0777 3.81365 16.0167 3.58425C15.9557 3.35484 15.8501 3.1397 15.706 2.95111C15.5618 2.76252 15.3819 2.60418 15.1766 2.48514V2.48343ZM2.97942 23.6531C3.40482 23.8977 3.9099 23.9634 4.3837 23.8358C4.8575 23.7082 5.26126 23.3977 5.50628 22.9726L6.52457 21.2069H2.256C2.03993 21.6296 1.99453 22.1192 2.12916 22.5745C2.2638 23.0297 2.56819 23.4159 2.97942 23.6531ZM19.0097 22.9726L13.2874 13.0331L15.4183 9.368L19.1194 15.7451H21.9806C22.4602 15.7451 22.9202 15.9357 23.2594 16.2749C23.5986 16.614 23.7891 17.074 23.7891 17.5537C23.7891 18.0334 23.5986 18.4934 23.2594 18.8326C22.9202 19.1717 22.4602 19.3623 21.9806 19.3623H21.2006L22.2171 21.1263C22.3511 21.3372 22.441 21.5731 22.4814 21.8197C22.5218 22.0663 22.5119 22.3185 22.4522 22.5612C22.3925 22.8039 22.2843 23.0319 22.1341 23.2316C21.984 23.4314 21.7949 23.5986 21.5784 23.7234C21.3618 23.8481 21.1223 23.9277 20.8741 23.9573C20.626 23.987 20.3745 23.9661 20.1346 23.896C19.8948 23.8258 19.6716 23.7078 19.4786 23.5491C19.2855 23.3904 19.1266 23.1943 19.0114 22.9726H19.0097Z" fill="#A17E6D"/>
</svg>
