<svg width="74" height="63" viewBox="0 0 74 63" fill="none" xmlns="http://www.w3.org/2000/svg">
<path d="M12.9865 50.9366C12.3647 51.2635 10.8286 51.4088 10.8286 51.4088V51.9899C10.8286 51.9899 12.3647 52.1352 12.9865 52.4621C13.5717 52.789 14.0837 53.2249 14.4494 53.806C14.8517 54.3871 15.1078 55.0409 15.2906 55.8037C15.4735 56.5664 15.5466 57.2238 15.5466 57.2238H16.0587C16.0587 57.2238 16.2392 56.1811 16.3147 55.8037C16.4976 55.0409 16.7902 54.3871 17.1559 53.806C17.5216 53.2249 17.9971 52.789 18.6189 52.4621C19.2406 52.1352 20.7767 51.9899 20.7767 51.9899V51.4088C20.7767 51.4088 19.2406 51.2635 18.6189 50.9366C18.0337 50.6097 17.5216 50.1739 17.1559 49.5927C16.7536 49.0116 16.4976 48.3578 16.3147 47.5951C16.2308 47.1455 16.0587 46 16.0587 46H15.5466C15.5466 46 15.3766 47.3046 15.2906 47.5951C15.1078 48.3578 14.8152 49.0116 14.4494 49.5927C14.0837 50.1739 13.6082 50.6097 12.9865 50.9366Z" fill="#FFD5BD"/>
<path d="M54.1579 48.9366C53.5361 49.2635 52 49.4088 52 49.4088V49.9899C52 49.9899 53.5361 50.1352 54.1579 50.4621C54.743 50.789 55.2551 51.2249 55.6208 51.806C56.0231 52.3871 56.2791 53.0409 56.462 53.8037C56.6449 54.5664 56.718 55.2238 56.718 55.2238H57.2301C57.2301 55.2238 57.4106 54.1811 57.4861 53.8037C57.669 53.0409 57.9615 52.3871 58.3273 51.806C58.693 51.2249 59.1685 50.789 59.7902 50.4621C60.412 50.1352 61.9481 49.9899 61.9481 49.9899V49.4088C61.9481 49.4088 60.412 49.2635 59.7902 48.9366C59.2051 48.6097 58.693 48.1739 58.3273 47.5927C57.925 47.0116 57.669 46.3578 57.4861 45.5951C57.4022 45.1455 57.2301 44 57.2301 44H56.718C56.718 44 56.548 45.3046 56.462 45.5951C56.2791 46.3578 55.9866 47.0116 55.6208 47.5927C55.2551 48.1739 54.7796 48.6097 54.1579 48.9366Z" fill="#FFD5BD"/>
<path d="M36.5 16.3076C23.817 16.3076 13.5 26.6246 13.5 39.3076C13.5 51.9906 23.817 62.3076 36.5 62.3076C49.183 62.3076 59.5 51.9906 59.5 39.3076C59.5 34.7476 58.1603 30.4969 55.8633 26.9189L54.4941 28.5361C56.3891 31.6901 57.5 35.3676 57.5 39.3076C57.5 50.8866 48.079 60.3076 36.5 60.3076C24.921 60.3076 15.5 50.8866 15.5 39.3076C15.5 27.7286 24.921 18.3076 36.5 18.3076C41.943 18.3076 46.8939 20.4074 50.6289 23.8174L51.9375 22.2725C47.8525 18.5675 42.435 16.3076 36.5 16.3076ZM54.7363 22.0615L35.4141 44.8623L27.2812 37.2764L25.918 38.7393L35.584 47.7549L56.2637 23.3545L54.7363 22.0615Z" fill="#FF5E00"/>
<path d="M59.957 8.60995C58.909 9.16094 56.3198 9.40583 56.3198 9.40583V10.3854C56.3198 10.3854 58.909 10.6303 59.957 11.1812C60.9434 11.7322 61.8064 12.4669 62.4229 13.4464C63.101 14.426 63.5325 15.528 63.8408 16.8136C64.149 18.0992 64.2723 19.2074 64.2723 19.2074H65.1354C65.1354 19.2074 65.4396 17.4498 65.5669 16.8136C65.8751 15.528 66.3683 14.426 66.9848 13.4464C67.6012 12.4669 68.4026 11.7322 69.4506 11.1812C70.4986 10.6303 73.0878 10.3854 73.0878 10.3854V9.40583C73.0878 9.40583 70.4986 9.16094 69.4506 8.60995C68.4643 8.05896 67.6012 7.3243 66.9848 6.34476C66.3066 5.36523 65.8751 4.26325 65.5669 2.9776C65.4255 2.21979 65.1354 0.289062 65.1354 0.289062H64.2723C64.2723 0.289062 63.9857 2.48797 63.8408 2.9776C63.5325 4.26325 63.0393 5.36523 62.4229 6.34476C61.8064 7.3243 61.005 8.05896 59.957 8.60995Z" fill="#FFD5BD"/>
<path d="M2.98647 22.5816C2.36472 22.9085 0.828613 23.0538 0.828613 23.0538V23.6349C0.828613 23.6349 2.36472 23.7802 2.98647 24.1071C3.57166 24.434 4.08369 24.8699 4.44943 25.451C4.85174 26.0322 5.10776 26.6859 5.29063 27.4487C5.4735 28.2114 5.54664 28.8688 5.54664 28.8688H6.05868C6.05868 28.8688 6.23917 27.8261 6.3147 27.4487C6.49757 26.6859 6.79015 26.0322 7.15589 25.451C7.52163 24.8699 7.9971 24.434 8.61885 24.1071C9.24061 23.7802 10.7767 23.6349 10.7767 23.6349V23.0538C10.7767 23.0538 9.24061 22.9085 8.61885 22.5816C8.03367 22.2547 7.52163 21.8189 7.15589 21.2377C6.75358 20.6566 6.49757 20.0028 6.3147 19.2401C6.2308 18.7905 6.05868 17.645 6.05868 17.645H5.54664C5.54664 17.645 5.37664 18.9496 5.29063 19.2401C5.10776 20.0028 4.81517 20.6566 4.44943 21.2377C4.08369 21.8189 3.60823 22.2547 2.98647 22.5816Z" fill="#FFD5BD"/>
</svg>
