<svg width="32" height="33" viewBox="0 0 32 33" fill="none" xmlns="http://www.w3.org/2000/svg">
<circle cx="16" cy="16.2583" r="15.3333" stroke="#A17E6D" stroke-width="1.33333"/>
<path d="M19.8333 11.1083C19.2637 10.458 18.9498 9.62283 18.95 8.7583H16.375V19.0916C16.3551 19.6508 16.1191 20.1805 15.7165 20.5691C15.3139 20.9577 14.7762 21.1749 14.2167 21.175C13.0333 21.175 12.05 20.2083 12.05 19.0083C12.05 17.575 13.4333 16.5 14.8583 16.9416V14.3083C11.9833 13.925 9.46667 16.1583 9.46667 19.0083C9.46667 21.7833 11.7667 23.7583 14.2083 23.7583C16.825 23.7583 18.95 21.6333 18.95 19.0083V13.7666C19.9942 14.5165 21.2478 14.9188 22.5333 14.9166V12.3416C22.5333 12.3416 20.9667 12.4166 19.8333 11.1083Z" fill="#A17E6D"/>
</svg>
